<?xml version="1.0" encoding="iso-8859-1"?>
<!-- Generator: Adobe Illustrator 19.0.0, SVG Export Plug-In . SVG Version: 6.00 Build 0)  -->
<svg version="1.1" id="Capa_1" xmlns="http://www.w3.org/2000/svg" xmlns:xlink="http://www.w3.org/1999/xlink" x="0px" y="0px"
	 viewBox="0 0 512 512" style="enable-background:new 0 0 512 512;" xml:space="preserve">
<g>
	<rect x="10" y="374" style="fill:#32C8AF;" width="492" height="44"/>
	<rect x="10" y="143" style="fill:#32C8AF;" width="492" height="44"/>
</g>
<g>
	<polygon style="fill:#AAE6D2;" points="304,482 208,482 208,77.853 256,30 304,77.853 	"/>
	<polygon style="fill:#AAE6D2;" points="149.917,482 53.917,482 53.917,77.853 101.917,30 149.917,77.853 	"/>
	<polygon style="fill:#AAE6D2;" points="458,482 362,482 362,77.853 410,30 458,77.853 	"/>
</g>
<path d="M208,249c-2.63,0-5.21,1.07-7.07,2.93c-1.86,1.86-2.93,4.44-2.93,7.07s1.07,5.21,2.93,7.07c1.86,1.86,4.44,2.93,7.07,2.93
	s5.21-1.07,7.07-2.93S218,261.63,218,259s-1.07-5.21-2.93-7.07C213.21,250.07,210.63,249,208,249z"/>
<path d="M502,197c5.523,0,10-4.477,10-10v-44c0-5.523-4.477-10-10-10h-34V77.853c0-2.657-1.058-5.206-2.94-7.082l-48-47.853
	c-3.902-3.891-10.218-3.891-14.12,0l-48,47.853c-1.882,1.876-2.94,4.425-2.94,7.082V133h-38V77.853c0-2.657-1.058-5.206-2.94-7.082
	l-48-47.853c-3.902-3.891-10.218-3.891-14.12,0l-48,47.853c-1.882,1.876-2.94,4.425-2.94,7.082V133h-38.083V77.853
	c0-2.657-1.058-5.206-2.94-7.082l-48-47.853c-3.902-3.891-10.218-3.891-14.12,0l-48,47.853c-1.882,1.876-2.94,4.425-2.94,7.082V133
	H10c-5.523,0-10,4.477-10,10v44c0,5.523,4.477,10,10,10h33.917v167H10c-5.523,0-10,4.477-10,10v44c0,5.523,4.477,10,10,10h33.917v44
	H10c-5.523,0-10,4.477-10,10s4.477,10,10,10h492c5.523,0,10-4.477,10-10s-4.477-10-10-10h-34v-44h34c5.523,0,10-4.477,10-10v-44
	c0-5.523-4.477-10-10-10h-34V197H502z M492,153v24h-24v-24H492z M352,408h-38v-24h38V408z M314,428h38v44h-38V428z M314.411,153
	h36.781v24h-36.781V153z M352,197v167h-38V197H352z M160.821,153h36.781v24h-36.781L160.821,153L160.821,153z M159.917,428H198v44
	h-38.083L159.917,428L159.917,428z M198,408h-38.083v-24H198V408z M20,177v-24h23.917v24H20z M20,408v-24h23.917v24H20z M63.917,472
	V82.004l38-37.884l38,37.884V472H63.917z M218,472V295.822c0-5.523-4.477-10-10-10s-10,4.477-10,10V364h-38.083V197H198v18.667
	c0,5.523,4.477,10,10,10s10-4.477,10-10V82.004l38-37.884l38,37.884V472H218z M372,472V82.004l38-37.884l38,37.884V472H372z
	 M492,384v24h-24v-24H492z"/>
<path d="M101.92,155c-2.64,0-5.22,1.07-7.07,2.93c-1.87,1.86-2.93,4.44-2.93,7.07s1.06,5.21,2.93,7.07
	c1.86,1.86,4.43,2.93,7.07,2.93c2.63,0,5.21-1.07,7.07-2.93c1.86-1.86,2.93-4.44,2.93-7.07s-1.07-5.21-2.93-7.07
	C107.13,156.07,104.55,155,101.92,155z"/>
<path d="M256,155c-2.63,0-5.21,1.07-7.07,2.93c-1.86,1.86-2.93,4.44-2.93,7.07s1.07,5.21,2.93,7.07c1.86,1.86,4.44,2.93,7.07,2.93
	s5.21-1.07,7.07-2.93S266,167.63,266,165s-1.07-5.21-2.93-7.07C261.21,156.07,258.63,155,256,155z"/>
<path d="M410.08,155c-2.63,0-5.21,1.07-7.07,2.93c-1.86,1.86-2.93,4.44-2.93,7.07s1.07,5.21,2.93,7.07s4.44,2.93,7.07,2.93
	c2.64,0,5.21-1.07,7.07-2.93c1.87-1.86,2.93-4.44,2.93-7.07s-1.06-5.21-2.93-7.07C415.29,156.07,412.72,155,410.08,155z"/>
<path d="M101.92,386c-2.64,0-5.21,1.07-7.07,2.93c-1.87,1.86-2.93,4.44-2.93,7.07s1.06,5.21,2.93,7.07
	c1.86,1.86,4.43,2.93,7.07,2.93c2.63,0,5.21-1.07,7.07-2.93s2.93-4.44,2.93-7.07s-1.07-5.21-2.93-7.07
	C107.12,387.07,104.55,386,101.92,386z"/>
<path d="M256,386c-2.63,0-5.21,1.07-7.07,2.93S246,393.37,246,396s1.07,5.21,2.93,7.07c1.86,1.86,4.44,2.93,7.07,2.93
	s5.21-1.07,7.07-2.93S266,398.63,266,396s-1.07-5.21-2.93-7.07C261.21,387.07,258.63,386,256,386z"/>
<path d="M410.08,386c-2.63,0-5.21,1.07-7.07,2.93c-1.86,1.86-2.93,4.44-2.93,7.07s1.07,5.21,2.93,7.07s4.44,2.93,7.07,2.93
	c2.64,0,5.21-1.07,7.07-2.93c1.87-1.86,2.93-4.44,2.93-7.07s-1.06-5.21-2.93-7.07C415.29,387.07,412.71,386,410.08,386z"/>
<path d="M410,368c5.523,0,10-4.477,10-10v-81.873c0-5.523-4.477-10-10-10s-10,4.477-10,10V358C400,363.523,404.477,368,410,368z"/>
<g>
</g>
<g>
</g>
<g>
</g>
<g>
</g>
<g>
</g>
<g>
</g>
<g>
</g>
<g>
</g>
<g>
</g>
<g>
</g>
<g>
</g>
<g>
</g>
<g>
</g>
<g>
</g>
<g>
</g>
</svg>
