<?xml version="1.0" encoding="iso-8859-1"?>
<!-- Generator: Adobe Illustrator 19.0.0, SVG Export Plug-In . SVG Version: 6.00 Build 0)  -->
<svg version="1.1" id="Layer_1" xmlns="http://www.w3.org/2000/svg" xmlns:xlink="http://www.w3.org/1999/xlink" x="0px" y="0px"
	 viewBox="0 0 496.159 496.159" style="enable-background:new 0 0 496.159 496.159;" xml:space="preserve">
<path style="fill:#D61E1E;" d="M248.083,0.003C111.071,0.003,0,111.063,0,248.085c0,137.001,111.07,248.07,248.083,248.07
	c137.006,0,248.076-111.069,248.076-248.07C496.159,111.062,385.089,0.003,248.083,0.003z"/>
<path style="fill:#F4EDED;" d="M248.082,39.002C132.609,39.002,39,132.602,39,248.084c0,115.463,93.609,209.072,209.082,209.072
	c115.468,0,209.077-93.609,209.077-209.072C457.159,132.602,363.55,39.002,248.082,39.002z"/>
<g>
	<path style="fill:#5B5147;" d="M144.322,273.114c-12.085,0-21.875,9.793-21.875,21.876v48.475c0,12.083,9.79,17.528,21.875,17.528
		c12.079,0,21.87-5.445,21.87-17.528V294.99C166.191,282.908,156.401,273.114,144.322,273.114z"/>
	<path style="fill:#5B5147;" d="M353.2,273.114c-12.08,0-21.87,9.793-21.87,21.876v48.475c0,12.083,9.79,17.528,21.87,17.528
		c12.085,0,21.875-5.445,21.875-17.528V294.99C375.076,282.908,365.285,273.114,353.2,273.114z"/>
	<path style="fill:#5B5147;" d="M370.522,219.545c-13.858-36.785-20.955-80.835-47.247-80.835c0,0-46.886-3.545-75.038-3.545
		c-26.534,0-75.105,3.545-75.105,3.545c-28.195,0-34.626,44.326-47.943,81.108c-20.153,8.711-36.698,32.758-34.271,52.105
		c3.16,25.221,5.741,78.035,41.767,78.035h231.064c36.032,0,40.486-63.848,41.668-78.035
		C406.598,257.735,391.011,228.107,370.522,219.545z"/>
</g>
<g>
	<path style="fill:#F4EDED;" d="M245.017,338.533c-67.511,0.093-133.617,2.777-133.617,2.777c5.355,5.346,12.278,8.648,21.285,8.648
		h231.064c8.316,0,14.947-3.399,20.24-8.798C384.212,340.934,313.896,338.439,245.017,338.533z"/>
	<path style="fill:#F4EDED;" d="M319.7,293.208H176.634c-9.466,0-17.142,7.943-17.142,17.733c0,9.792,7.675,17.735,17.142,17.735
		H319.7c9.466,0,17.142-7.943,17.142-17.735C336.841,301.151,329.166,293.208,319.7,293.208z"/>
</g>
<path style="fill:#5B5147;" d="M278.691,303.036h-61.049c-4.043,0-7.314,3.274-7.314,7.314c0,4.043,3.271,7.315,7.314,7.315h61.049
	c4.043,0,7.314-3.272,7.314-7.315C286.006,306.31,282.734,303.036,278.691,303.036z"/>
<g>
	<path style="fill:#F4EDED;" d="M375.436,288.477c-9.181,0-28.319,8.801-28.319,17.976c0,9.181,19.138,10.465,28.319,10.465
		c9.175,0,16.614-7.437,16.614-16.617C392.05,291.127,384.611,288.477,375.436,288.477z"/>
	<path style="fill:#F4EDED;" d="M122.539,288.477c-9.181,0-16.62,2.65-16.62,11.824c0,9.181,7.439,16.617,16.62,16.617
		c9.174,0,28.313-1.285,28.313-10.465C150.853,297.278,131.714,288.477,122.539,288.477z"/>
	<path style="fill:#F4EDED;" d="M354.911,211.052c-11.924-30.086-18.399-65.527-41.556-65.527c0,0-40.697-2.896-65.135-2.896
		c-23.033,0-65.204,2.896-65.204,2.896c-24.749,0-30.552,35.373-42.028,65.443C135.477,225.407,360.62,225.448,354.911,211.052z"/>
</g>
<path style="fill:#D61E1E;" d="M85.851,60.394c-9.086,7.86-17.596,16.37-25.457,25.456l349.914,349.914
	c9.086-7.861,17.596-16.37,25.456-25.456L85.851,60.394z"/>
<g>
</g>
<g>
</g>
<g>
</g>
<g>
</g>
<g>
</g>
<g>
</g>
<g>
</g>
<g>
</g>
<g>
</g>
<g>
</g>
<g>
</g>
<g>
</g>
<g>
</g>
<g>
</g>
<g>
</g>
</svg>
